<svg id="Calque_1" data-name="Calque 1" xmlns="http://www.w3.org/2000/svg" width="590" height="376" viewBox="0 0 590 376">
  <defs>
    <style>
      .cls-1 {
        fill: #fff;
      }
    </style>
  </defs>
  <title>logo-blanc</title>
  <g>
    <path class="cls-1" d="M451.85,279.91c-4.37,2.15-7.19,5.3-10.36,8.07-9.33,8.15-19.15,15.52-31.08,19.66A24.54,24.54,0,0,1,391,306.47c-11.2-5.22-18.45-13.72-22.69-25.23-7.59-20.63-4.21-39.55,8.63-56.93,6.06-8.2,12.14-16.33,20.42-22.76,11.37-8.83,24.08-11.08,37.83-10,3.8.31,7.56,1.1,11.25,1.65,2.41-8.58,2.44-31.85.15-45.63-3.56-.68-6.67,1.25-9.9,2.26-5,1.57-10,3.43-15.08,4.93a33.44,33.44,0,0,1-7.26,1.18c-11.55.76-16.72-8.76-17.51-17.24-.13-1.44,1-3.46,2.24-4.47a22.63,22.63,0,0,1,6.36-3.59c9.85-3.85,19.65-7.9,29.7-11.15a84.91,84.91,0,0,1,19.62-3.93c5.43-.4,10.24,2.47,13.15,7.33s5.69,9.77,6.27,15.58c1.1,11.22,2.58,22.42,3.31,33.66,1.35,20.8,5.09,41.29,8.16,61.84,1.61,10.75,5.27,21.2,8.09,31.77.25.93,1.1,1.7,2.09,3.17,1.42-1.25,3-2.08,3.76-3.38,8.25-13.53,17.47-26.46,24-41,3.73-8.28,8.33-16.38,17.48-20.39,1.82-.8,3.2-2.65,4.69-4.1,1-1,1.68-2.3,2.76-3.15,5.66-4.48,11.84-2.55,14.24,4.25a18,18,0,0,1-.38,13.46c-3.8,8.72-7.47,17.57-12.21,25.78-7,12.2-14.85,24-22.53,35.8-6.54,10.06-13.48,19.85-20,29.91-4.37,6.73-10.29,11.31-17.39,14.89-5.36,2.71-10.24,2.23-15.1-.44a38.59,38.59,0,0,1-18.75-23.26c-1.24-4-1.86-8.25-2.86-12.36C453.18,283.3,452.5,281.77,451.85,279.91Zm-3.68-61.53c-3-4.27-9.06-2.15-13.23-.6-19.06,7.1-23.42,17-27.08,28.6a27.19,27.19,0,0,0-.13,13.32c1.1,3.31,2.27,4.75,5.37,4.7,6.14-.1,11.7-1.51,16.45-5.89,2.75-2.55,5.28-4.62,7.82-7a48,48,0,0,0,3.54-3.65c1.74-2.23,3.43-3.86,5.22-6.55,2.4-3.59,3.75-6.45,3.89-10.76S450.41,221.6,448.17,218.37Z"/>
    <path class="cls-1" d="M153.38,228.65c4.79,1.57,4.64,7.56,4.32,11.08-.52,5.82-.73,11.68-3.47,17.41-6.12,12.79-12.9,25-22,36-7.37,8.93-16.45,15.81-27.09,19.66-9.64,3.48-19.9,4-30-.42C48,300.43,33.11,279.25,28.17,250.46c-2.34-13.63-2.36-27.42-1.8-41.14a175.06,175.06,0,0,1,3.58-26.17c5.22-26.78,13.28-52.56,25.93-76.93A169.33,169.33,0,0,1,82.77,68.5a55.71,55.71,0,0,1,27-15.91,40.15,40.15,0,0,1,18.88-.31c6.82,1.44,11.56,6.44,15.41,12,1.57,2.27,2.62,5,1.53,8a16.12,16.12,0,0,1-4.9,7.69c-6.66,5.66-13.45,11.37-18.34,18.84a32.66,32.66,0,0,1-2.69,3.26C105.81,118.14,97,136.8,91.08,157q-3.28,11.16-7.21,22.13c-4.22,11.77-6,23.95-6.5,36.34-.39,9.49-1.19,19-.52,28.48.64,9.07,2.85,18,4.56,27a29.4,29.4,0,0,0,2.47,7c1.64,3.46,4.26,5.38,8.41,5.07,7.65-.57,14.39-2.54,19.48-9,8.3-10.47,16.87-20.79,23.22-32.56C139,234,147.34,226.66,153.38,228.65Z"/>
    <path class="cls-1" d="M306.33,75.55c3.12-3,5.9-2.7,10.06-2.81,5.24-.14,9.14.7,12.81,3.87a29.75,29.75,0,0,1,4.39,4.57c7.85,10.47,15.41,21.1,18.5,34.16a15.46,15.46,0,0,0,1.15,2.93c.13.27.55.4,1.48,1a27.42,27.42,0,0,0,3.34-3.11c10.06-12.84,23.4-21.26,37.85-28.19a48.39,48.39,0,0,1,6.92-2.62c10-3,18,.79,24.7,8a8.45,8.45,0,0,1-1.19,13,23.21,23.21,0,0,1-8.38,4.24c-12.17,2.66-22,9.22-30.91,17.49-2.79,2.61-4.86,6-7.15,9.13q-6.24,8.53-12.34,17.16c-5.18,7.31-8.93,15-8.9,24.39,0,13.75-.56,27.5-.79,41.25-.2,12.05-2.19,23.88-4.24,35.7a17.23,17.23,0,0,1-1.29,5.09c-3.58,6.76-11.2,9.06-16.78,4.49-8.33-6.83-14.07-15.18-14.68-25.91-.91-16.2-.88-32.46-1.28-48.69q-.38-15.34-.89-30.68c-.43-12.34-1-24.67-1.38-37-.2-7.14-1.16-14-4.39-20.51q-3.31-6.63-6.3-13.42C304.93,85.21,303.22,78.52,306.33,75.55Z"/>
    <path class="cls-1" d="M165.3,39.14c.48-2.41,2.83-4.19,5.16-6,11.38-8.66,24.81-5.19,29.94,8.11a45.14,45.14,0,0,1,3,14.85c.33,13.54,0,27.11-.14,40.66-.11,11.87-.54,23.75-.37,35.62.22,14.84.8,29.69,1.45,44.52.2,4.58,1.12,11.5,2.77,13s6.42,1.31,9.65,1c4.67-.44,7.34,2.07,8.62,6,3,9.2,2.72,18.35-1.91,27a104.61,104.61,0,0,1-6.78,10.75c-8.29,11.79-24.2,12.62-34,5.94-3.82-2.6-7.75-5.59-10.4-9.28-12.1-16.87-20.21-35.1-19.25-56.64,1.25-28,2.21-55.94,6.23-83.71,1.34-9.23,2.26-18.52,3.11-27.81C163.15,55.19,164.65,42.37,165.3,39.14Z"/>
    <path class="cls-1" d="M328.84,279.47c-1.46-3.88-5.18-4.82-8.76-2.7a26.87,26.87,0,0,0-9.28,9.68c-.8,1.34-2.73,2-5,3.55-.44-16.31-1.74-31.43-1.06-46.62.38-8.39.89-16.8.68-25.18-.39-15.48-1-31-2-46.4-.74-11-3.91-21.54-8.56-31.64-3.44-7.46-9.57-10.06-17-10.79-1.9-.18-4,.49-5.73-.11-10.33-3.64-20.37-1.79-30.29,1.42-5.83,1.88-11.53,4.2-17.23,6.47-1.67.67-3.42.88-4,2.78-.41,1.26,1.14,5.63,2.56,7.7,4.11,6,8.95,10.66,18.89,8.15,2.19-.55,4.36-1.24,6.58-1.67A26.64,26.64,0,0,1,264,155.29l-6.16,94c-5.82,0-10.77-1.56-15.79-2.5C232,244.89,221.75,245,212.46,249c-19.76,8.54-39.07,27-36.82,55.9.83,10.67,4.82,19.34,12.87,26.14,5.93,5,12.32,9.49,19.53,12.39,5.32,2.14,10.71,5,16.76,3.91,11.4-2,21.77-6.12,29.57-15.19,2.11-2.45,4.17-4.95,6.41-7.28a41.45,41.45,0,0,1,4.16-3.4c3.65,2.2,3.82,5.76,5.34,8.49,4.85,8.71,15.51,14.13,25.1,12.69a23.9,23.9,0,0,1,5.73-.37,8.76,8.76,0,0,0,7-2.56c7.06-6.35,13.26-13.25,15.65-22.83a45.35,45.35,0,0,1,2.79-7.23c2.94-6.63,3.65-13.75,4.15-20.82C330.93,285.77,330,282.43,328.84,279.47Zm-76.43,7.61c-2.57,5.21-5.75,9.42-9.3,15s-8.07,8.1-13.79,9.58c-3.63.94-6.14-.22-8.22-3.52a26.22,26.22,0,0,1-4-15.68,55.64,55.64,0,0,1,2-10.47c.62-2.46,4.73-6.56,7.33-8,11.11-6.26,23.13-.61,29.2,3.36C255.69,281.15,253.93,284,252.41,287.08Z"/>
  </g>
</svg>
